<svg xmlns="http://www.w3.org/2000/svg" xmlns:xlink="http://www.w3.org/1999/xlink" width="100" height="100" viewBox="0 0 100 100">
  <defs>
    <clipPath id="clip-iPhone_X_XS_2">
      <rect width="100" height="100"/>
    </clipPath>
  </defs>
  <g id="iPhone_X_XS_2" data-name="iPhone X/XS – 2" clip-path="url(#clip-iPhone_X_XS_2)">
    <path id="Path_269" data-name="Path 269" d="M9775.957,8970h-37.8a31.112,31.112,0,0,0-31.16,31.049v37.793A31.111,31.111,0,0,0,9738.16,9070h37.8A31.112,31.112,0,0,0,9807,9038.842v-37.793A31.112,31.112,0,0,0,9775.957,8970Zm11.359,23.51a3.841,3.841,0,0,0-3.82-3.711,3.769,3.769,0,1,0,0,7.537A3.867,3.867,0,0,0,9787.316,8993.51Zm-30.26,1.689a24.96,24.96,0,1,0,17.438,7.309A24.735,24.735,0,0,0,9757.057,8995.2Zm0,40.943a16.2,16.2,0,1,1,11.363-27.561,15.734,15.734,0,0,1,4.838,11.359,16.329,16.329,0,0,1-16.2,16.2Zm41.4,2.7a22.66,22.66,0,0,1-22.5,22.611h-37.8a22.659,22.659,0,0,1-22.609-22.611v-37.793a22.667,22.667,0,0,1,22.609-22.5h37.8a22.668,22.668,0,0,1,22.5,22.5Z" transform="translate(-9706.617 -8970)" fill-rule="evenodd"/>
  </g>
</svg>
