<svg xmlns="http://www.w3.org/2000/svg" width="97.271" height="100" viewBox="0 0 97.271 100">
  <path id="ic_settings_24px" d="M88.067,56.9a38.963,38.963,0,0,0,.35-4.9,38.966,38.966,0,0,0-.35-4.9l10.55-8.25a2.523,2.523,0,0,0,.6-3.2l-10-17.3a2.513,2.513,0,0,0-3.05-1.1l-12.45,5a36.531,36.531,0,0,0-8.45-4.9L63.367,4.1A2.438,2.438,0,0,0,60.917,2h-20a2.438,2.438,0,0,0-2.45,2.1l-1.9,13.25a38.414,38.414,0,0,0-8.45,4.9l-12.45-5a2.439,2.439,0,0,0-3.05,1.1l-10,17.3a2.465,2.465,0,0,0,.6,3.2l10.55,8.25a39.653,39.653,0,0,0-.35,4.9,39.652,39.652,0,0,0,.35,4.9L3.217,65.15a2.523,2.523,0,0,0-.6,3.2l10,17.3a2.513,2.513,0,0,0,3.05,1.1l12.45-5a36.531,36.531,0,0,0,8.45,4.9l1.9,13.25a2.438,2.438,0,0,0,2.45,2.1h20a2.438,2.438,0,0,0,2.45-2.1l1.9-13.25a38.415,38.415,0,0,0,8.45-4.9l12.45,5a2.439,2.439,0,0,0,3.05-1.1l10-17.3a2.523,2.523,0,0,0-.6-3.2ZM50.917,69.5A17.5,17.5,0,1,1,68.417,52,17.519,17.519,0,0,1,50.917,69.5Z" transform="translate(-2.271 -2)"/>
</svg>
