<svg xmlns="http://www.w3.org/2000/svg" xmlns:xlink="http://www.w3.org/1999/xlink" width="100" height="100" viewBox="0 0 100 100">
  <defs>
    <clipPath id="clip-iPhone_X_XS_1">
      <rect width="100" height="100"/>
    </clipPath>
  </defs>
  <g id="iPhone_X_XS_1" data-name="iPhone X/XS – 1" clip-path="url(#clip-iPhone_X_XS_1)">
    <path id="Path_267" data-name="Path 267" d="M537,6345.229a58.608,58.608,0,0,0,89.881-49.516v-2.371c1.184-.967,8.4-6.779,10.119-10.547a44.9,44.9,0,0,1-11.625,3.014h0c.538-.322,7.965-5.381,8.934-11.41a65.414,65.414,0,0,1-9.9,4.2c-.969.322-2.045.645-3.014.967a20.407,20.407,0,0,0-15.07-6.564,20.627,20.627,0,0,0-20.56,20.559,21.767,21.767,0,0,0,.538,4.629c-1.615,0-25.727-1.4-42.2-21.312,0,0-9.8,13.457,5.92,27.232a21.258,21.258,0,0,1-8.934-2.689s-1.507,16.254,16.254,20.453a18.744,18.744,0,0,1-9.042.322s3.122,13.131,18.838,14.422c0,0-12.379,11.2-30.14,8.613Z" transform="translate(-537 -6264)" fill-rule="evenodd"/>
  </g>
</svg>
