<svg xmlns="http://www.w3.org/2000/svg" xmlns:xlink="http://www.w3.org/1999/xlink" width="100" height="100" viewBox="0 0 100 100">
  <defs>
    <clipPath id="clip-iPhone_X_XS_3">
      <rect width="100" height="100"/>
    </clipPath>
  </defs>
  <g id="iPhone_X_XS_3" data-name="iPhone X/XS – 3" clip-path="url(#clip-iPhone_X_XS_3)">
    <path id="Path_270" data-name="Path 270" d="M587.077,3475.987a12.525,12.525,0,0,0-8.87-8.871C570.445,3465,539.1,3465,539.1,3465s-31.348,0-39.211,2.116a12.7,12.7,0,0,0-8.87,8.871C489,3483.851,489,3500.078,489,3500.078s0,16.329,2.016,24.091a12.7,12.7,0,0,0,8.87,8.87c7.862,2.116,39.211,2.116,39.211,2.116s31.348,0,39.11-2.015a12.527,12.527,0,0,0,8.87-8.871c2.117-7.862,2.117-24.091,2.117-24.091S589.193,3483.851,587.077,3475.987ZM529.118,3515.1l26.006-15.019-26.006-15.019Z" transform="translate(-489.193 -3450)" fill-rule="evenodd"/>
  </g>
</svg>
